<svg version="1.1" id="Слой_2" xmlns="http://www.w3.org/2000/svg" x="0" y="0" viewBox="0 0 536.4 858.6" xml:space="preserve"><style>.st0,.st1{fill:none;stroke:#000;stroke-miterlimit:10}.st1{stroke-linecap:round;stroke-linejoin:round}</style><switch><g><path class="st0" d="M159.4 234.3c4.7-2.4 14.7 1.9 18.9 4.3 1.6.9 8.4 8.1 9.8 7.2 4.7-3-8.8-12.8-10.9-13.9-5.5-2.8-11.9-3.5-18-3.1-13.2.9-26.1 7-35 16.7 6.4 2.7 7.7 1.6 14.3-.2 1.8-.5 9.5.8 11.4.4 2.2-.5 7.5.4 9.8.3 2.6-.1 5.1-.8 7.7-1.2 4.2-.6 5.2.2 6.1-4.3.4-1.9 1.4-3.3-.3-4.2m89.4-7c6.1-3.4 9.8-2.8 16.7-4.1 4.3-.8 8.9-.2 12.9 1.5 1.8.8 3.4 1.9 5 3 2.5 1.8 4.9 3.2 10.2 6.9 2.2 1.5-.5 2-1.5 4.5-15.8.5-25.2 2.1-40.4 1.1-2.6-.2-11 3.2-12.1 1.5-1.7-3 7.3-13.4 9.2-14.4z"/><path class="st1" d="M152.3 245.3c-.2-.4-1.2-1.6-1.3-2-1.3-3.3-2.1-8 3.6-9.1-1.2.2 11.7-1 7.8.6m9 9.4c2.8 0 7.3.1 10.1.1.8 0 1.6 0 2.4.3.7.3 1.6.5 2.1.5"/><path class="st0" d="M255.9 244.3c2.8-4.4 9.2-10.5 14.3-11.8 4.9-1.3 10-1.3 15.1-1.2 3.2 0 6.5 0 9.5 1.2 4.1 1.6 8.2 5.4 12.4 6.6"/><path class="st1" d="M135.6 245.9c5.4-5.9 11.4-7.8 15.6-10.2m40.3 46c-7.2 5.7-16.1 29.8 9.5 29.8"/><path class="st1" d="M201.6 308c-5.4-.9-3.5-3.4-3.6-4.6-.3-2.2 2-2.2 6-2.2 10.8.2 4.2 5.5 14.8 5.7 9.7.2 5.9-6.5 16.1-6.5 6.1 0 6.5 2 5.5 4.6-1.2 2-3.8 2.6-4.7 2.8m5.7 2c10.9 1 26.1-15.6 2.5-31.3"/><path d="M274.1 233.2c0 .5 0 1 .1 1.5.1.4.2.7.4.9.2.2.5.5.9 1s.8 1.3.8 2.1l-1.3-1.3c1.6-.1 3 .6 4.4 1.1 1.4.6 2.8.8 4.2.6.6-.1 1.6-.3 1.5-.5 0 0-.1 0-.2.1s-.1.2-.1.2l-.3-.3c-.8-.9-1.9-1.4-2.9-1.8l-.1-.1c-.3-.2-.7-.5-.9-.9-.2-.4-.2-.7-.2-1 0-.6.2-1 .5-1.4.3-.4.8-.7 1.1-.8.3-.1.6-.1.8-.2h.4c.1 0 0 .1 0 .1v.1c0 .1 0 .4.2.5l.8.4c-1.1-.2-2.1-.5-3.2-.9-.1 0-.1-.1-.1-.2l.1-.1c1.1-.4 2.2-.7 3.2-.9.2 0 .4 0 .6.2l.2.2c.2.2.4.5.4.8.1.3 0 .6 0 .8-.1.5-.3.8-.6 1.1-.2.3-.7.5-.9.6-.3.1-.5.2-.6.2-.2.1-.2.1-.3.1-.1.1.2-.1.2-.1.1-.1.1-.1.2-.4 0-.1 0-.3-.1-.5s-.3-.4-.5-.5l-.2-.1c1.7.5 3 1.7 4 3.1.3.4.6.8.7 1.6.1.4 0 .8-.2 1.2-.2.4-.6.7-.9.9-.7.3-1.2.2-1.6.1l-1.1-.3c-1.5-.3-2.9-.7-4.3-.6-1.5.1-2.9.3-4.2.2h-.2c-.7-.1-1.2-.6-1.2-1.3 0-.2 0-.4-.2-.7-.1-.3-.5-.8-.7-1.5-.2-.7-.2-1.4.1-2 .2-.6.6-1 1-1.4.1-.1.2-.1.2 0 .1 0 .1 0 .1.1z" fill="#262626"/><path class="st0" d="M188.7 207.2c0-.9 0-1.7-.4-2.5-.7-1.3-2.4-1.6-3.8-1.8-13.9-1.9-28-2.9-41.9-.5-11.2 1.9-21.9 5.6-30.9 12.5-.8.6-1.6 1.9-.8 2.5l8.7-3.6c2-.8 4.1-1.7 6.2-2.3 4.1-1.2 8.5-1.3 12.8-1.4 4.8-.1 9.6-.3 14.3-.4 4.5-.1 9.1-.2 13.4 1.1 1.7.5 3.3 1.3 4.9 1.9 4.3 1.5 9.4 2.4 13.9 2.3 5-.2 3.6-3.4 3.6-7.8zm55.9.2c1.9-5.2.3-5.5 10-6.9 9.1-1.3 27.4-4.6 33.1-4.6 2.1 0 5.6.9 7.4 2 1.4.8 23.8 12.5 23.4 14.8-3.2-.1-23.7-6.6-28.2-7.1-4.6-.5-9.3 0-13.9.6-3.4.4-21.9 5.4-27.7 4.5-5.3-.9-5.6.8-4.1-3.3zm-30.2 129.3s6.6.8 9.3.6c3.6-.2 6.5-1.5 13.3-1.3 5.8.2 14.5 1.4 19.7 3.9 4.6 2.3 10.7 5.5 15.8 6.3 1.4.2.5.2-.9.5-6.1 1.3-14.9 2.7-17.2 2.6-7.9-.3-10.8-2.4-18.7-1.6-2.8.3-8.1 1.8-12.4 1.4-1.8-.2-4.2-.3-6-.6-6.6-1.4-14.5.4-21.2 1.7-10.1 1.9-23.2-1.2-15.4 2.9 6.7 3.5 12.3 9.2 52.7 7.9 17.9-.6 32.7-10.6 41.2-14.7l-19.1 3-16.4-1.7-15 1.6-11.9-1.2-18.6 2.5s-15.6 1.3-17.3-.5c-.5-.5 2.5-1.4 5.2-2.6s18.5-10 32.9-10.7zm-3.1-33.5c3 3.5-.3 4.8-7.4 4.8-4.1 0-6.4.8-6.4-2.8 0-2.7 3.4-3.9 6.4-3.8 2.5.1 5.7-.2 7.4 1.8zm29.1-.9c0 5.2-5.3 5.7-7.1 5.7-6.9-.1-6.6-3.8-5.1-5.7 0 0 1.2-1.7 5.1-1.7s7.1-.8 7.1 1.7zm-70.1-66.9c-6.1-1.6-7.9-2.8-15.1-1.5 1.1-.3-4.5.9-4.8 4-.2 1.9 1.4 7.5 3 7.6 2.2.1 7.8.4 8.2.3 4.1-1 8.7-1.4 10.1-2 .5-.2 1.1-2.6 1.3-3.5 2.3-4.2-1.3-4.5-2.7-4.9zm121.5-1.4c-.2-2.5-1.8-2.8-3.4-2.8-1.3 0-2.5-.2-3.8.1-1.2.3.4 1-.5 1.6-2.2 1.5-2.9 2.4-1.1 3 7.7 5.1-2.1 3-3.5 3-1.5 0-5.9-.6-5.3-3.1-.3-.5-.9-2.4-.8-2.5 1.7-1.9-4.2-2.3-6.3.9-.8 1.3-.3 3.1.3 5.6.1.4 1 1.8 1.4 2.1 1.2.8 3.2.7 5.6.5.8 0 14.4-.2 14-.2-1.6 0 .2.1 2-2.5 1.1-1.6 1.6-3.8 1.4-5.7z"/><path d="M158 418.4c-5-11.2-16.3-18.4-24.1-27.5-2.9-3.4-5.7-7.1-8.2-10.9-2.5-4.6-5.1-9.2-7.6-13.8-.1-.1-.1-.3-.2-.4-1.2-2.6-2.3-5.3-3.3-7.9-4.6-12.8-18.2-64.1-18.6-70.2-.7-12.9 6.6-37.7 7.3-50.7 3.5-22.4-9.2-31.9-4.3-54.1 4.2-19.1 15-35.5 25.4-52.3 4.1-3.1 1.4-9.1 6.5-10.9 9.7-3.4 5.5-18.9-4.3-15.4-16 5.6-39.8 32.2-40.6 33.7-1.7 3.3-23.7 33.7-24.8 47-6.2 12.2-11.1 24.3-12.9 38.1-1.9 14.7-1.7 29.6-1.9 44.4-.3 15.4-.4 30.8-.1 46.2.7 30.8 3.6 61.4 10.1 91.5 3.1 14.5 5.6 28.6 6.5 43.4.1 2 7.8 32.2 12.3 37.4 16.7 19.2 44.5 17.8 61.1-.5 3.4-3.8 15.1-23.3 14.9-24 .8-1.7 1.5-3.5 2.2-5.2 5.1-11.9 10.2-25.4 4.6-37.9z" fill="#e5e5e5" stroke="#262626" stroke-miterlimit="10"/><path d="M534.6 555.1c-2.7-16.4-10.9-31.6-20.3-45.1-8.5-12.2-18.1-23.8-24.7-37.2-.9-2.6-1.7-5.2-2.3-7.9-.1-2.3-.1-4.6 0-7 1.1-5.7 2.9-11.3 5-16.7 11.4-25.6 27.2-50.8 25.7-79.8-.9-17.8-7.1-34.6-17.1-49.3-5.1-7.5-10.9-14.7-16.6-21.7-2.1-2.6-4.2-5.1-6.2-7.7-1-1.4-2.1-2.8-3.1-4.2-9.4-13.5-16.7-28.3-23.2-43.4-8.3-20.1-15.9-40.5-25.6-60-9.2-18.5-20.6-35.4-33.3-51.6-23.1-29.6-53.2-55.6-87.6-71.2-4-1.8-7.9-3.4-11.9-5-5.4-3.9-11.2-7.3-17.6-10-14.1-6-30.8-8.3-45.8-3.7-5.3-1.1-10.7-1.6-16.2-1.7-21.2-.6-43.2 2.9-63 10.5-7.6 2.9-14 6.7-18.2 14-3.8 6.5-5.4 16.2-3.1 23.5 4.7 14.5 21.6 27.4 37.5 21.3 9.1-3.5 18.4-6 28-7.6 5.3-.6 10.6-.8 15.9-.8 2.3 4 4.8 8 7.5 11.8 7 10.2 14.8 19.9 22.5 29.6 1.6 2 3.2 4 4.7 5.9.7.9 1.4 1.8 2.1 2.6.1.1.2.2.3.4.2.3.5.6.6.8.8 1.1 1.7 2.2 2.5 3.4 1.5 2 2.9 4.1 4.4 6.1 5.4 7.8 10.1 16 14 24.7 6.7 16.9 12 34.4 19.8 50.9 7.6 16.1 18.8 30.4 30.9 43.4 6.7 7.2 12.4 25.1 19.4 32.1-.5 3.7.5-3.7 0 0-2 16.5-4 32.9-6.1 49.4-1.8 12.7-4.3 25.3-8.8 37.4-1.2 2.6-2.5 5.1-4 7.5-1.1 1.8-2.3 3.5-3.4 5.3-.2.2-.4.4-.6.7-1.3 1.5-2.7 2.9-4.1 4.3-.2.2-.4.4-.7.6-1.3.6-3.5 2.6-4.4 3.1-.8.5-1.6.9-2.5 1.3-8.2 2.8-16.7 4.5-24 9.4-14.2 9.5-22 25.8-20.5 42.9 2 22.1 6.6 44.2 9.9 66.1 2.8 18.3-.1 40 11.2 54.9 37.2 48.9 22.9 76.9 22.2 79.2-9.7 35.2 13.8 36.2 6.3 45.2-14.1 17.1.3 52.8-.1 60.3-1.1 20.4-1.7 15.6 3.7 35.3 5.9 21.5 19.4 43.9 42.6 49.4 16.8 4 33.1-1.2 45.8-12.3 7.8-6.7 13.5-16 18.1-25.1 20.3-40.5 30.4-61.8 47.4-103.6 6.8-15.4 14.8-30.1 24.4-44 10.5-15.1 22.1-29.6 30.1-46.2 11.1-22.4 16.6-45.7 12.5-70.5z" fill="#e5e5e5" stroke="#000" stroke-miterlimit="10"/><path d="M157.2 235.6c0 .5 0 1 .1 1.4.1.4.2.7.4.9.2.2.5.5.8 1 .4.5.7 1.2.7 1.9l-1.2-1.2c1.4-.1 2.8.6 4 1.1 1.2.5 2.5.7 3.8.5.3 0 .7-.1.9-.2.3-.1.5-.2.3-.2-.1 0-.2.2-.3.2 0 0-.1-.2-.3-.4-.8-.8-1.7-1.3-2.6-1.7l-.1-.1c-.3-.2-.6-.5-.8-.8-.2-.3-.2-.6-.2-.9 0-.5.2-.9.4-1.2.1-.2.3-.3.5-.5s.4-.2.5-.3c.3-.1.6-.1.7-.2h.4c.1 0 0 .1 0 .1v.1c0 .1.1.3.2.4l.7.3c-1-.2-1.9-.5-2.9-.9-.1 0-.1-.1-.1-.2 0 0 0-.1.1-.1 1-.4 1.9-.6 2.9-.8.2 0 .4 0 .5.2l.2.2c.4.4.5 1 .4 1.4-.1.4-.3.7-.5 1-.1.1-.2.3-.4.4-.2.1-.3.2-.4.2-.3.1-.5.2-.6.2-.1.1-.2.1-.2.1 0 .1.2-.1.2-.1.1-.1.1-.1.1-.3 0-.1 0-.2-.1-.4s-.3-.4-.4-.5l-.2-.1c1.5.5 2.8 1.6 3.6 2.9.2.3.5.8.6 1.4.2.6-.1 1.6-.8 2-.7.4-1.1.3-1.5.2-.4-.1-.7-.1-1-.2-1.3-.3-2.6-.6-4-.6-1.3 0-2.6.3-3.8.2h-.1c-.6 0-1.1-.6-1.1-1.2 0-.2 0-.4-.1-.7-.1-.3-.5-.8-.6-1.4-.2-.6-.1-1.3.1-1.8s.5-1 .9-1.3c.1-.1.2-.1.2 0 .1-.1.1-.1.1 0z"/></g></switch></svg>